<svg id="svg2" xmlns="http://www.w3.org/2000/svg" width="531.49" height="237.42" viewBox="0 0 531.49 237.42"><defs><style>.cls-1{fill:#020202;}</style></defs><title>M1</title><path id="path4" d="M195.8,185A128.66,128.66,0,0,1,183,208c-6.7,9.6-12.2,16.2-16.4,19.9-6.6,6-13.6,9.1-21.1,9.3-5.4,0-11.9-1.5-19.5-4.7a55.87,55.87,0,0,0-21-4.6,57.93,57.93,0,0,0-21.6,4.6c-7.7,3.1-13.9,4.7-18.7,4.9q-10.8.45-21.6-9.6c-4.6-4-10.3-10.9-17.2-20.6A143.53,143.53,0,0,1,7.7,171.1C2.6,156.3,0,142,0,128.1,0,112.2,3.4,98.5,10.3,87A61.17,61.17,0,0,1,31.9,65.1a57.73,57.73,0,0,1,29.2-8.3c5.7,0,13.3,1.8,22.6,5.3s15.3,5.3,17.9,5.3c2,0,8.6-2.1,19.9-6.2q16-5.7,27-4.8,30,2.4,45,23.7c-17.9,10.8-26.7,26-26.5,45.4q.3,22.8,16.5,37.8a56.94,56.94,0,0,0,16.4,10.8c-1.2,3.8-2.6,7.4-4.1,10.9ZM150,4.8c0,11.9-4.3,23-13,33.2-10.4,12.2-23.1,19.2-36.7,18.1a30.74,30.74,0,0,1-.3-4.5c0-11.4,5-23.6,13.8-33.6A51.48,51.48,0,0,1,130.6,5.4,50,50,0,0,1,149.8,0C149.9,1.6,150,3.2,150,4.8Z"/><path class="cls-1" d="M394,237.42V107.92h-.89L340.4,237.42H318.14l-52.73-129.5h-.89v129.5H235.05V54.93h37.82l55.89,139.24h1L385.67,54.93h37.69V237.42Z"/><path class="cls-1" d="M499.49,86h-.76l-47.17,32.38v-30l47.68-33.51h32.25V237.42h-32Z"/></svg>